<?xml version="1.0" encoding="utf-8"?>
<!-- Generator: Adobe Illustrator 13.0.0, SVG Export Plug-In . SVG Version: 6.00 Build 14948)  -->
<!DOCTYPE svg PUBLIC "-//W3C//DTD SVG 1.1//EN" "http://www.w3.org/Graphics/SVG/1.1/DTD/svg11.dtd">
<svg version="1.1" id="Слой_1" xmlns="http://www.w3.org/2000/svg" xmlns:xlink="http://www.w3.org/1999/xlink" x="0px" y="0px"
	 width="139.75px" height="31.987px" viewBox="0 0 139.75 31.987" enable-background="new 0 0 139.75 31.987" xml:space="preserve">
<g>
	<g>
		<path fill="#2BB885" d="M13.035,0C11.251,0,0,0.021,0,0.021V26.93h12.847c0,0,1.722,0.244,1.722-1.591V1.488
			C14.569,1.488,14.82,0,13.035,0z M21.954,0.011c-1.786,0-1.535,1.488-1.535,1.488v23.852c0,1.834,1.723,1.591,1.723,1.591h4.985
			c0.737,0.394,2.397,1.534,1.804,3.586c0,0-0.924,1.713,1.219,1.428c2.141-0.286,4.945-3.944,4.839-5.014V0.032
			C34.988,0.032,23.737,0.011,21.954,0.011z"/>
	</g>
</g>
<g>
	<g>
		<path fill="#3A3A3C" d="M44.766,21.365h3.207V7.325h-3.207V21.365z M59.496,10.454c-1.704,0.02-3.004,0.661-3.774,2.005v-1.885
			h-3.123v10.791h3.123v-5.316c0-1.583,0.934-2.748,2.496-2.767c1.34,0,2.148,0.841,2.148,2.206v5.877h3.126v-6.779
			C63.492,12.059,61.929,10.454,59.496,10.454z M70.024,13.503c0-0.562,0.528-0.803,1.258-0.803c0.914,0,2.131,0.381,3.328,1.043
			l1.074-2.105c-1.217-0.763-2.76-1.204-4.26-1.204c-2.374,0-4.302,1.143-4.302,3.37c0,3.79,5.661,2.867,5.661,4.594
			c0,0.58-0.588,0.841-1.38,0.841c-1.197,0-2.658-0.479-3.794-1.343l-1.014,2.086c1.238,0.983,2.961,1.504,4.727,1.504
			c2.475,0,4.443-1.162,4.443-3.368C75.787,14.306,70.024,15.128,70.024,13.503z M84.042,18.898
			c-0.668,0.021-1.054-0.341-1.054-1.244v-4.452h2.962v-2.146h-2.962v-2.97h-3.104v2.97h-1.521v2.125h1.521v4.995
			c0,2.226,1.48,3.33,3.429,3.33c1.015,0,2.028-0.283,2.841-0.742l-0.649-2.267C84.936,18.759,84.448,18.898,84.042,18.898z
			 M94.328,10.453c-1.907,0-3.306,0.441-4.931,1.244l0.976,2.125c1.136-0.621,2.272-0.941,3.245-0.941
			c1.502,0,2.271,0.662,2.271,1.805v0.2h-3.002c-2.678,0.021-4.158,1.225-4.158,3.25c0,1.967,1.419,3.37,3.752,3.37
			c1.521,0,2.699-0.501,3.43-1.403v1.264h3.063l-0.019-7.042C98.933,11.899,97.25,10.453,94.328,10.453z M95.889,17.675
			c-0.182,0.923-1.216,1.625-2.535,1.625c-1.055,0-1.703-0.542-1.703-1.364c0-0.863,0.587-1.222,1.784-1.222h2.454V17.675z
			 M109.888,10.474c-1.479,0-2.677,0.601-3.45,1.685V6.482h-3.123v14.884h3.123v-1.565c0.793,1.082,1.989,1.685,3.512,1.685
			c3.063,0,5.071-2.186,5.071-5.455C115.021,12.699,112.951,10.474,109.888,10.474z M109.158,18.918c-1.603,0-2.72-1.202-2.72-2.988
			c0-1.745,1.117-2.968,2.72-2.968s2.698,1.241,2.698,2.968C111.856,17.694,110.76,18.918,109.158,18.918z M123.542,10.474
			c-3.509,0-5.863,2.187-5.863,5.495c0,3.29,2.354,5.519,5.863,5.519c3.489,0,5.844-2.229,5.844-5.519
			C129.385,12.661,127.031,10.474,123.542,10.474z M123.542,18.979c-1.623,0-2.719-1.204-2.719-2.969s1.096-2.969,2.719-2.969
			c1.602,0,2.719,1.204,2.719,2.969S125.143,18.979,123.542,18.979z M139.102,18.498c-0.568,0.261-1.056,0.4-1.462,0.4
			c-0.669,0.021-1.054-0.341-1.054-1.244v-4.452h2.961v-2.146h-2.961v-2.97h-3.104v2.97h-1.521v2.125h1.521v4.995
			c0,2.226,1.479,3.33,3.429,3.33c1.014,0,2.027-0.283,2.84-0.742L139.102,18.498z"/>
	</g>
</g>
</svg>
