<svg viewBox="0 0 221.9 35" xmlns="http://www.w3.org/2000/svg"><path d="m56.91 17.18v-2.18a5.94 5.94 0 0 1 1.32-4.15 5.23 5.23 0 0 1 4.05-1.44 4.08 4.08 0 0 1 3.72 1.64v-5.47a1.32 1.32 0 0 1 .23-.93 1.39 1.39 0 0 1 .93-.23h.32a1.39 1.39 0 0 1 .93.23 1.38 1.38 0 0 1 .23.93v11.6a5.24 5.24 0 0 1 -1.55 4.12 6.27 6.27 0 0 1 -4.33 1.38 6.33 6.33 0 0 1 -4.41-1.35 5.39 5.39 0 0 1 -1.44-4.15zm2.65 0a6.26 6.26 0 0 0 .12 1.34 2.38 2.38 0 0 0 .47.94 1.9 1.9 0 0 0 1 .6 5.69 5.69 0 0 0 1.63.19 3.46 3.46 0 0 0 2.57-.73 3.31 3.31 0 0 0 .65-2.37v-2.21a5.65 5.65 0 0 0 -.14-1.35 2.23 2.23 0 0 0 -.5-.95 2.08 2.08 0 0 0 -1-.61 5.71 5.71 0 0 0 -1.62-.19 3.39 3.39 0 0 0 -2.54.73 3.46 3.46 0 0 0 -.67 2.37zm11.52 0v-2.18q0-5.56 5.7-5.57a5.6 5.6 0 0 1 4 1.34 5.28 5.28 0 0 1 1.39 4v1.12a1.44 1.44 0 0 1 -.34.95 1.54 1.54 0 0 1 -1 .23h-7.11v.57a2.34 2.34 0 0 0 .86 2 4.94 4.94 0 0 0 2.81.61 14.41 14.41 0 0 0 3.34-.44 1.77 1.77 0 0 1 .46-.07.59.59 0 0 1 .38.1 1.23 1.23 0 0 1 .21.86v.3a1.35 1.35 0 0 1 -.2.86 1.75 1.75 0 0 1 -.85.41 13.46 13.46 0 0 1 -3.34.41 7.3 7.3 0 0 1 -4.78-1.3 5.21 5.21 0 0 1 -1.53-4.2zm2.64-2.33h6v-.64q0-2.55-3-2.55c-2 0-3 .85-3 2.55zm10.76 2.33v-2.18q0-5.56 5.7-5.57a5.6 5.6 0 0 1 4 1.34 5.28 5.28 0 0 1 1.39 4c0 .36 0 .74-.05 1.12a1.5 1.5 0 0 1 -.34.95 1.56 1.56 0 0 1 -1 .23h-7.06v.57a2.34 2.34 0 0 0 .86 2 4.94 4.94 0 0 0 2.81.61 14.41 14.41 0 0 0 3.34-.44 1.72 1.72 0 0 1 .46-.07.59.59 0 0 1 .38.1 1.23 1.23 0 0 1 .21.86v.3a1.35 1.35 0 0 1 -.2.86 1.8 1.8 0 0 1 -.85.41 13.46 13.46 0 0 1 -3.34.41 7.28 7.28 0 0 1 -4.79-1.3 5.21 5.21 0 0 1 -1.52-4.2zm2.64-2.33h6v-.64c0-1.7-1-2.55-3-2.55s-3 .85-3 2.55zm11.09 11.51v-11.51a5.18 5.18 0 0 1 1.55-4.1 7.72 7.72 0 0 1 8.74 0 5.34 5.34 0 0 1 1.5 4.1v2.23a6 6 0 0 1 -1.32 4.15 5.2 5.2 0 0 1 -4 1.45c-1.82 0-3.07-.55-3.76-1.65v5.34a1.3 1.3 0 0 1 -.24.92 1.36 1.36 0 0 1 -.94.24h-.3a1.36 1.36 0 0 1 -.93-.23 1.35 1.35 0 0 1 -.3-.94zm2.65-9.21a3.31 3.31 0 0 0 .68 2.34 3.46 3.46 0 0 0 2.57.73 5.59 5.59 0 0 0 1.61-.19 1.88 1.88 0 0 0 1-.59 2.38 2.38 0 0 0 .48-1 5.56 5.56 0 0 0 .13-1.34v-2.16a5.71 5.71 0 0 0 -.13-1.35 2.42 2.42 0 0 0 -.47-.95 1.84 1.84 0 0 0 -1-.61 5.62 5.62 0 0 0 -1.62-.19 5.71 5.71 0 0 0 -1.62.19 2.13 2.13 0 0 0 -1 .61 2.35 2.35 0 0 0 -.5.95 5.71 5.71 0 0 0 -.13 1.35zm17.63 0v-2.15a5.94 5.94 0 0 1 1.32-4.15 5.21 5.21 0 0 1 4-1.44c1.8 0 3 .56 3.74 1.67v-5.5a1.32 1.32 0 0 1 .24-.93 1.36 1.36 0 0 1 .93-.23h.31a1.36 1.36 0 0 1 .93.23 1.32 1.32 0 0 1 .24.93v11.6a5.24 5.24 0 0 1 -1.55 4.12 7.68 7.68 0 0 1 -8.74 0 5.39 5.39 0 0 1 -1.42-4.12zm2.65 0a6.26 6.26 0 0 0 .12 1.34 2.26 2.26 0 0 0 .47.94 1.91 1.91 0 0 0 1 .6 5.74 5.74 0 0 0 1.63.19 3.49 3.49 0 0 0 2.58-.73 3.31 3.31 0 0 0 .68-2.34v-2.21a5.18 5.18 0 0 0 -.14-1.35 2.21 2.21 0 0 0 -.49-.95 2.13 2.13 0 0 0 -1-.61 5.74 5.74 0 0 0 -1.63-.19 3.37 3.37 0 0 0 -2.53.73 3.46 3.46 0 0 0 -.67 2.37zm12.23-10.27a1.53 1.53 0 0 1 -.48-1.15 1.53 1.53 0 0 1 .48-1.14 1.63 1.63 0 0 1 2.78 1.14 1.56 1.56 0 0 1 -.47 1.15 1.58 1.58 0 0 1 -1.15.47 1.63 1.63 0 0 1 -1.16-.47zm-.18 14.36v-10.43a1.36 1.36 0 0 1 .23-.93 1.4 1.4 0 0 1 .93-.22h.33a1.37 1.37 0 0 1 .93.22 1.36 1.36 0 0 1 .23.93v10.43a1.36 1.36 0 0 1 -.23.93 1.37 1.37 0 0 1 -.93.22h-.33a1.4 1.4 0 0 1 -.93-.22 1.36 1.36 0 0 1 -.23-.93zm5.22-10.45a2.35 2.35 0 0 1 -.09-.57.55.55 0 0 1 .09-.34c.11-.15.4-.22.86-.22h.39a1.61 1.61 0 0 1 1 .22 1.57 1.57 0 0 1 .43.91l2 8.34a1.9 1.9 0 0 0 .45 1 1.28 1.28 0 0 0 .84.24 1.3 1.3 0 0 0 .83-.23 2 2 0 0 0 .45-1l2-8.34a1.63 1.63 0 0 1 .43-.91 1.63 1.63 0 0 1 1-.22h.38c.46 0 .75.07.87.22a.55.55 0 0 1 .09.34 2.21 2.21 0 0 1 -.09.56l-2.05 8.48a11.35 11.35 0 0 1 -.46 1.51 3.64 3.64 0 0 1 -.65 1 2.28 2.28 0 0 1 -1.09.65 6.15 6.15 0 0 1 -1.69.19 5.79 5.79 0 0 1 -1.4-.12 3.36 3.36 0 0 1 -1-.37 2.14 2.14 0 0 1 -.68-.69 4.65 4.65 0 0 1 -.46-.92c-.11-.32-.23-.75-.35-1.26zm13.31 6.39v-2.18q0-5.56 5.7-5.57a5.6 5.6 0 0 1 4.05 1.34 5.28 5.28 0 0 1 1.39 4c0 .36 0 .74-.05 1.12a1.44 1.44 0 0 1 -.34.95 1.54 1.54 0 0 1 -1 .23h-7.13v.57a2.34 2.34 0 0 0 .86 2 4.94 4.94 0 0 0 2.81.61 14.41 14.41 0 0 0 3.34-.44 1.77 1.77 0 0 1 .46-.07.59.59 0 0 1 .38.1 1.23 1.23 0 0 1 .21.86v.3a1.35 1.35 0 0 1 -.2.86 1.75 1.75 0 0 1 -.85.41 13.46 13.46 0 0 1 -3.34.41 7.3 7.3 0 0 1 -4.78-1.3 5.21 5.21 0 0 1 -1.51-4.2zm2.64-2.33h6v-.64q0-2.55-3-2.55c-2 0-3 .85-3 2.55zm17.06 2.33v-2.18a5.94 5.94 0 0 1 1.32-4.15 5.2 5.2 0 0 1 4-1.44c1.81 0 3.06.56 3.75 1.67v-5.5a1.32 1.32 0 0 1 .24-.93 1.36 1.36 0 0 1 .93-.23h.34a1.36 1.36 0 0 1 .93.23 1.32 1.32 0 0 1 .24.93v11.6a5.24 5.24 0 0 1 -1.55 4.12 7.68 7.68 0 0 1 -8.74 0 5.39 5.39 0 0 1 -1.46-4.12zm2.64 0a6.19 6.19 0 0 0 .13 1.34 2.26 2.26 0 0 0 .47.94 1.91 1.91 0 0 0 1 .6 5.74 5.74 0 0 0 1.63.19 3.5 3.5 0 0 0 2.58-.73 3.35 3.35 0 0 0 .68-2.34v-2.24a5.18 5.18 0 0 0 -.14-1.35 2.21 2.21 0 0 0 -.49-.95 2.13 2.13 0 0 0 -1-.61 5.79 5.79 0 0 0 -1.63-.19 3.41 3.41 0 0 0 -2.54.73 3.51 3.51 0 0 0 -.67 2.37zm11.7.52v-6.89a1.29 1.29 0 0 1 .23-.92 1.32 1.32 0 0 1 .93-.23h.33a1.35 1.35 0 0 1 .92.22 1.36 1.36 0 0 1 .23.93v6.89a3.8 3.8 0 0 0 .13 1.08 1.9 1.9 0 0 0 .44.78 2 2 0 0 0 .91.5 5.62 5.62 0 0 0 1.48.16 6.16 6.16 0 0 0 1.49-.15 1.78 1.78 0 0 0 1.32-1.29 4.66 4.66 0 0 0 .11-1.08v-6.89a1.36 1.36 0 0 1 .23-.92 1.41 1.41 0 0 1 .94-.23h.32a1.35 1.35 0 0 1 .92.22 1.31 1.31 0 0 1 .23.93v6.86a4.94 4.94 0 0 1 -1.32 3.74 7.6 7.6 0 0 1 -8.46 0 4.84 4.84 0 0 1 -1.38-3.74zm13.6-.39v-2.54a5.25 5.25 0 0 1 1.48-3.95 6.14 6.14 0 0 1 4.44-1.44 8.84 8.84 0 0 1 2 .25 1.45 1.45 0 0 1 .83.4 1.47 1.47 0 0 1 .2.89v.33a1.12 1.12 0 0 1 -.23.85.44.44 0 0 1 -.32.1 2.54 2.54 0 0 1 -.53-.1 6.49 6.49 0 0 0 -1.91-.26 3.85 3.85 0 0 0 -2.59.68 3 3 0 0 0 -.74 2.29v2.42a2.86 2.86 0 0 0 .82 2.33 4.31 4.31 0 0 0 2.7.66h.68l.51-.07.45-.09.33-.08a2.58 2.58 0 0 1 .44-.05.68.68 0 0 1 .4.11 1.14 1.14 0 0 1 .21.81v.32a1.38 1.38 0 0 1 -.21.88 1.67 1.67 0 0 1 -.86.4 9.83 9.83 0 0 1 -2.08.26 6.57 6.57 0 0 1 -4.56-1.35 5.23 5.23 0 0 1 -1.46-4.08zm11.34 4v-15.73a1.38 1.38 0 0 1 .23-.93 1.39 1.39 0 0 1 .93-.23h.32a1.39 1.39 0 0 1 .93.23 1.32 1.32 0 0 1 .23.93v15.66a1.37 1.37 0 0 1 -.22.93 1.42 1.42 0 0 1 -.94.22h-.32a1.4 1.4 0 0 1 -.93-.22 1.36 1.36 0 0 1 -.23-.93zm3.51-5.65a2.47 2.47 0 0 1 .21-1.06 4.43 4.43 0 0 1 .82-1.13l2.35-2.66a3.41 3.41 0 0 1 1-.87 3.36 3.36 0 0 1 1.41-.28h.44c.58 0 .9.07 1 .21a.22.22 0 0 1 0 .08 1.64 1.64 0 0 1 -.49.79l-3.58 4a1.38 1.38 0 0 0 -.52.91 1.61 1.61 0 0 0 .49.9l4.12 4.75c.33.37.49.63.49.79a.22.22 0 0 1 0 .08q-.1.21-1 .21h-.44a3.41 3.41 0 0 1 -1.34-.21 3.28 3.28 0 0 1 -1-.87l-2.93-3.3a4.24 4.24 0 0 1 -.81-1.21 2.94 2.94 0 0 1 -.22-1.2z" fill="#efebe9"/><path d="m21.63 8.28a8.27 8.27 0 0 0 5.76 7.86 8.27 8.27 0 0 0 -4.59-14.14 13.4 13.4 0 0 1 7.09-2 13.07 13.07 0 0 1 3.72.53 13.33 13.33 0 0 1 9.65 12.84 21.63 21.63 0 0 1 -43.26 0 13.38 13.38 0 0 1 13.37-13.37 8.26 8.26 0 0 1 8.26 8.26z" fill="#efebe9"/><path d="m16.52 13.37a3.17 3.17 0 0 1 -3.15-3 8.26 8.26 0 0 0 14 5.76 8.27 8.27 0 0 1 -5.76-7.86 5.11 5.11 0 0 1 -5.11 5.09z" fill="#f78f20"/><path d="m15 9.47a.74.74 0 0 0 .74.74.75.75 0 0 0 .75-.74.76.76 0 0 0 -.75-.75.75.75 0 0 0 -.74.75z" fill="#14499e"/><path d="m22 18.47h-.35a8.25 8.25 0 0 1 -5.84-2.42 21.64 21.64 0 0 0 26.69 3.09 21.62 21.62 0 0 0 .78-5.78 13.35 13.35 0 0 0 -2.1-7.21 21.63 21.63 0 0 1 -19.18 12.32z" fill="#56c0ee"/><path d="m43.08 16.13a20.86 20.86 0 0 0 .18-2.76 13.35 13.35 0 0 0 -2.1-7.21 21.64 21.64 0 0 1 -2 3.35 21.48 21.48 0 0 1 3.92 6.62z" fill="#44b3e6"/><path d="m28.72 16.44a13.27 13.27 0 0 1 -6.74 2 21.63 21.63 0 0 0 19.18-12.28 13.42 13.42 0 0 0 -7.55-5.63 8.17 8.17 0 0 1 1.39 4.58 13.36 13.36 0 0 1 -3.91 9.45 13.89 13.89 0 0 1 -2.37 1.88z" fill="#38a4dd"/><path d="m35 5.79a21.8 21.8 0 0 1 4.18 3.72 21.64 21.64 0 0 0 2-3.35 13.42 13.42 0 0 0 -7.57-5.63 8.17 8.17 0 0 1 1.39 4.58z" fill="#2c98d4"/><path d="m21.63 18.48a8.27 8.27 0 0 0 1.17-16.48 13.4 13.4 0 0 1 7.09-2 13.07 13.07 0 0 1 3.72.53 8.17 8.17 0 0 1 1.39 4.58 13.36 13.36 0 0 1 -3.91 9.45 13.89 13.89 0 0 1 -2.37 1.88 13.27 13.27 0 0 1 -6.74 2z" fill="#398bcb"/><path d="m35 5.11a8.17 8.17 0 0 0 -1.39-4.58 13.07 13.07 0 0 0 -3.72-.53 13.4 13.4 0 0 0 -7.09 2 21.52 21.52 0 0 1 12.2 3.79c0-.23 0-.45 0-.68z" fill="#0277bd"/></svg>