<svg height="13" viewBox="0 0 32 13" width="32" xmlns="http://www.w3.org/2000/svg"><path d="m31.3079478 22.242928c-.6340993.3470677-.870219.9334123-.870219 2.5525969 0 0 .3210517-.3243016.7972931-.5050369.3472872-.1310216.643882-.3312708.8150799-.4622923.5358272-.4102554.6189804-.9380585.6189804-1.8273323 0 0-.8737762-.0246246-1.3611344.2420646m-3.7605731.379312c-.517151.4762308-.6683388 1.2354123-.6683388 1.2354123l-1.711979 6.9306675-1.4238329-5.6724891c-.138737-.6030707-.3886415-1.3483138-.7843977-1.8524215-.5038109-.6420984-1.5278856-.68252-1.6368297-.68252-.1093888 0-1.1334635.0404216-1.6377192.68252-.3953115.5041077-.6452159 1.2493508-.7839529 1.8524215l-1.4238329 5.6724891-1.7124237-6.9306675s-.1507431-.7591815-.6678941-1.2354123c-.8386474-.7721908-2.0961738-.6072523-2.0961738-.6072523l3.2785509 12.9520828s1.0814371.0817723 1.623045-.2067538c.7105825-.3781969 1.0489763-.67044 1.4794167-2.4327261.3833054-1.5713292 1.4554045-6.1863537 1.5554552-6.5148368.049803-.1621508.1125015-.5501046.3855288-.5501046.2783633 0 .3361704.3874892.3846394.5501046.098272.3289477 1.1721498 4.9435076 1.5558999 6.5148368.4304404 1.7622861.7683895 2.0545292 1.4794166 2.4327261.5411632.2885261 1.6226004.2067538 1.6226004.2067538l3.2785509-12.9520828s-1.2570817-.1649385-2.0957291.6072523m5.1206403 1.5072587s-.2049928.3317354-.6732301.6049293c-.3001522.1756246-.5887429.2945661-.8982332.4497476-.518485.25972-.6590007.5491754-.6590007.99056v.1477477.6820554.0185846.1537877 7.790206s.8275306.1096492 1.3686938-.1788769c.696353-.3707631.8564342-.7285169.8626596-2.3393384v-7.8501414l-.0008894.0004646zm8.1720984 4.3929849 4.1598866-6.4646584s-1.7555566-.3122215-2.6248862.5143293c-.556282.5291969-1.1783752 1.4807292-1.1783752 1.4807292l-1.5305537 2.3054215c-.0742598.1198707-.1716425.2504276-.3268323.2504276s-.2521278-.1305569-.3263877-.2504276l-1.5305537-2.3054215s-.6220931-.9515323-1.1783751-1.4807292c-.8693296-.8265508-2.6248863-.5143293-2.6248863-.5143293l4.159442 6.4646584-4.1487699 6.4446799s1.8284825.2416 2.6978121-.58588c.556282-.5287323 1.0947772-1.3892 1.0947772-1.3892l1.5305537-2.3049569c.0742599-.1203354.1711979-.2504277.3263877-.2504277s.2525725.1300923.3268323.2504277l1.5305537 2.3049569s.5696221.8604677 1.1259041 1.3892c.8697743.82748 2.6662406.58588 2.6662406.58588z" transform="translate(-13 -22)"/></svg>