<svg xmlns="http://www.w3.org/2000/svg" width="164" height="35" viewBox="0 0 218 36.866">
            <g id="Main-logo-path" transform="translate(-7.1 -13.519)">
              <g id="Group_4" data-name="Group 4">
                <g id="bucket">
                  <g id="Ellipse_1" data-name="Ellipse 1" transform="translate(8.009 13.519)" stroke="#707070" stroke-width="0.057" fill="#204ecf">
                    <circle cx="3.323" cy="3.323" r="3.323" stroke="none"></circle>
                    <circle cx="3.323" cy="3.323" r="3.295" fill="none"></circle>
                  </g>
                  <circle id="Ellipse_2" data-name="Ellipse 2" cx="3.323" cy="3.323" r="3.323" transform="translate(11.247 28.97)" fill="#204ecf"></circle>
                  <path id="Path_3" data-name="Path 3" d="M8.009,16.786l3.274,15.869L14.2,35.568l21.446,2.093,9.49-19.727L11.657,13.525Z" fill="#204ecf"></path>
                </g>
                <g id="Ellipse_3" data-name="Ellipse 3" transform="translate(7.1 36.411)" fill="none" stroke="#00cc83" stroke-width="2.84">
                  <circle cx="5.482" cy="5.482" r="5.482" stroke="none"></circle>
                  <circle cx="5.482" cy="5.482" r="4.061" fill="none"></circle>
                </g>
                <g id="Ellipse_4" data-name="Ellipse 4" transform="translate(28.913 39.422)" fill="none" stroke="#00cc83" stroke-width="2.84">
                  <circle cx="5.482" cy="5.482" r="5.482" stroke="none"></circle>
                  <circle cx="5.482" cy="5.482" r="4.061" fill="none"></circle>
                </g>
                <rect id="Rectangle_1" data-name="Rectangle 1" width="14.883" height="4.431" transform="translate(16.307 39.938) rotate(7)" fill="#00cc83"></rect>
                <path id="Rectangle_2" data-name="Rectangle 2" d="M0,0H8.066A1.136,1.136,0,0,1,9.2,1.136V3.295A1.136,1.136,0,0,1,8.066,4.431H0Z" transform="translate(47.365 13.565) rotate(7)" fill="#00cc83"></path>
                <rect id="Rectangle_4" data-name="Rectangle 4" width="29.255" height="4.431" transform="matrix(0.438, -0.899, 0.899, 0.438, 32.79, 40.796)" fill="#00cc83"></rect>
                <circle id="Ellipse_5" data-name="Ellipse 5" cx="2.13" cy="2.13" r="2.13" transform="translate(45.273 13.576)" fill="#00cc83"></circle>
              </g>
              <path id="Path_6" data-name="Path 6" d="M9.479-3.214a5.361,5.361,0,0,0,4.378-2.119l2.329,2.4A8.481,8.481,0,0,1,9.654.186a8.5,8.5,0,0,1-6.2-2.376,8.028,8.028,0,0,1-2.434-6,8.1,8.1,0,0,1,2.48-6.044,8.354,8.354,0,0,1,6.067-2.422A8.6,8.6,0,0,1,16.279-13.6L14.02-11.039a5.293,5.293,0,0,0-4.285-2.143A4.994,4.994,0,0,0,6.23-11.843a4.666,4.666,0,0,0-1.456,3.61A4.927,4.927,0,0,0,6.148-4.588,4.535,4.535,0,0,0,9.479-3.214ZM30.626,0,29.112-3.517H22.288L20.774,0H16.908l7.033-16.279h3.517L34.492,0ZM25.712-11.435,23.662-6.707h4.076Zm23.965.559q0,3.913-3.1,5.054L50.7,0H46.23L42.62-5.194H40.1V0H36.472V-16.279h6.172q3.8,0,5.415,1.281A4.941,4.941,0,0,1,49.677-10.876ZM42.76-8.338A3.906,3.906,0,0,0,45.3-8.943a2.459,2.459,0,0,0,.675-1.921,2.059,2.059,0,0,0-.7-1.8,4.472,4.472,0,0,0-2.445-.489H40.1v4.821Zm17.3-4.8V0H56.431V-13.135H51.819v-3.144H64.675v3.144Zm7.36-3.144h3.633V0H67.423Zm19.121,0h3.633V0H86.544L78.789-10.2V0H75.156V-16.279h3.4L86.544-5.8Zm12.972,2.818a2.19,2.19,0,0,0-1.432.431,1.4,1.4,0,0,0-.524,1.141,1.29,1.29,0,0,0,.64,1.13,11.7,11.7,0,0,0,2.957.99,8.325,8.325,0,0,1,3.6,1.712,4.227,4.227,0,0,1,1.281,3.33A4.4,4.4,0,0,1,104.4-1.176a6.546,6.546,0,0,1-4.32,1.363,10,10,0,0,1-6.964-2.865l2.166-2.655q2.632,2.306,4.868,2.306a2.555,2.555,0,0,0,1.572-.431,1.383,1.383,0,0,0,.571-1.164,1.357,1.357,0,0,0-.606-1.164,7.9,7.9,0,0,0-2.4-.873,10.432,10.432,0,0,1-4.157-1.758,4.152,4.152,0,0,1-1.316-3.4,4.215,4.215,0,0,1,1.665-3.575,6.7,6.7,0,0,1,4.157-1.258,10,10,0,0,1,3.261.559,8.732,8.732,0,0,1,2.841,1.584l-1.84,2.655a7.168,7.168,0,0,0-4.378-1.607Zm9.712-2.818h3.633V0h-3.633Zm18.306,7.988h3.656v5.776a8.547,8.547,0,0,1-6.707,2.7,8.282,8.282,0,0,1-6.02-2.376,8.028,8.028,0,0,1-2.434-6,8.1,8.1,0,0,1,2.48-6.044,8.256,8.256,0,0,1,5.985-2.422,8.853,8.853,0,0,1,6.09,2.306L128.7-11.622a7.189,7.189,0,0,0-2.015-1.316,5.4,5.4,0,0,0-1.991-.361,4.769,4.769,0,0,0-3.493,1.409,5,5,0,0,0-1.421,3.715,5.037,5.037,0,0,0,1.362,3.691A4.4,4.4,0,0,0,124.39-3.1a6.239,6.239,0,0,0,3.144-.722Zm17.095-7.988h3.633V0h-3.633V-6.4h-6.475V0h-3.633V-16.279h3.633v6.8h6.475Zm14.626,3.144V0h-3.633V-13.135H151.01v-3.144h12.856v3.144Z" transform="translate(61.235 41.467)" fill="#204ecf"></path>
            </g>
            </svg>